<?xml version="1.0" encoding="utf-8"?>
<!-- Generator: Adobe Illustrator 26.3.1, SVG Export Plug-In . SVG Version: 6.00 Build 0)  -->
<svg version="1.1" id="Layer_1" xmlns="http://www.w3.org/2000/svg" xmlns:xlink="http://www.w3.org/1999/xlink" x="0px" y="0px"
	 viewBox="0 0 87.6 87.6" style="enable-background:new 0 0 87.6 87.6;" xml:space="preserve">
<style type="text/css">
	.st0{fill:#FFFFFF;}
</style>
<g>
	<path class="st0" d="M362.8,80.4c-0.9,1.6-1.9,2.1-3.2,1.8c-1.4-0.4-2-1.4-2-3.3c0-0.6,0-1.2,0-1.9c-25.8,0-51.5,0-77.4,0
		c0,0.8,0,1.7,0,2.5c0,1.7-1.1,2.8-2.6,2.8c-1.5,0-2.5-1.2-2.5-2.8c0-4,0-8.1,0-12.1c0-0.2,0-0.4,0-0.6c0.3,0,0.6,0,0.8,0
		c28.8,0,57.6,0,86.4,0c0.1,0,0.3,0,0.4,0C362.8,71.3,362.8,75.9,362.8,80.4z"/>
	<path class="st0" d="M357.5,42.3c-3.2-2.5-6.6-4.3-10.3-5.3c0-1.7,0-3.3,0-4.9c0-3.8-2.5-6.3-6.3-6.4c-4.4,0-8.7,0-13.1,0
		c-3.7,0-6.2,2.6-6.3,6.2c0,1.3,0,2.6,0,4c-1.7,0-3.4,0-5.1,0c0-1.3,0-2.6,0-3.9c0-3.7-2.6-6.3-6.3-6.3c-4.4,0-8.7,0-13.1,0
		c-3.7,0-6.3,2.6-6.3,6.3c0,1.5,0,2.9,0,4.4c0,0.3-0.2,0.7-0.4,0.8c-3.6,1.1-6.9,2.8-9.8,5.2c0,0-0.1,0-0.2,0.1
		c0-0.3-0.1-0.5-0.1-0.7c0-9.4,0-18.8,0-28.2c0-1.9,0.6-2.6,2.5-3.1c7.2-2,14.5-3.4,22-4.2c8.5-0.9,17-1,25.5-0.3
		c8.5,0.7,16.8,2.2,25,4.5c1.9,0.5,2.4,1.3,2.4,3.2c0,9.3,0,18.5,0,27.8C357.5,41.5,357.5,41.8,357.5,42.3z"/>
	<path class="st0" d="M362.6,61.6c-29.1,0-58.1,0-87.3,0c0.2-1.1,0.4-2.1,0.6-3.1c2.5-10,11.7-17.3,22-17.4
		c14.1-0.1,28.1-0.1,42.2,0c11.4,0.1,21,8.7,22.6,20C362.6,61.2,362.6,61.4,362.6,61.6z"/>
	<path class="st0" d="M295.9,35.9c0-1.4,0-2.8,0-4.2c0-0.6,0.4-0.9,1-0.9c4.5,0,8.9,0,13.4,0c0.7,0,1,0.3,1,1c0,1.3,0,2.7,0,4.1
		C306.2,35.9,301.1,35.9,295.9,35.9z"/>
	<path class="st0" d="M326.7,36c0-1.5,0-2.9,0-4.2c0-0.6,0.4-0.9,1-0.9c4.5,0,8.9,0,13.4,0c0.7,0,1,0.4,1,1c0,1.4,0,2.7,0,4.1
		C337,36,331.9,36,326.7,36z"/>
</g>
<g>
	<path class="st0" d="M0,32c0.4-0.6,0.8-1.4,1.3-1.9c1.4-1.3,5.3-1.3,6.6,0.1c0.6,0.6,1,1.4,1.2,2.2c1.5,5.5,3,10.9,4.4,16.4
		c0.2,0.7,0.5,0.9,1.2,0.9c3.3,0,6.5,0,9.8,0c3.3,0,5.1,1.4,6,4.6c0.1,0.3,0.2,0.7,0.3,1c0.7,2.8-0.5,4.7-3.5,5.2
		c0.4,1.6,0.8,3.2,1.2,4.8c0.8,3,1.5,6,2.3,9c0.2,0.8,0.1,1.6-0.7,2.1c-0.6,0.4-1.3,0.5-1.9,0.1c-0.4-0.3-0.8-0.9-1-1.4
		c-1.2-4.6-2.3-9.2-3.4-13.8c-0.2-0.8-0.5-1-1.3-1c-3.8,0-7.5,0-11.3,0c-0.6,0-0.8,0.1-1,0.7c-1,4.6-2,9.2-3.1,13.8
		c-0.1,0.6-0.5,1.3-1,1.7c-0.5,0.5-1.3,0.4-1.9-0.1c-0.6-0.5-0.9-1.1-0.7-1.9c0.7-3.1,1.4-6.2,2-9.3c0.4-1.7,0.8-3.4,1.2-5.2
		c-2.5-1-3.6-2.8-3.9-5.4C2,47.9,1.1,41.1,0.2,34.4c0-0.2-0.1-0.4-0.2-0.7C0,33.1,0,32.6,0,32z"/>
	<path class="st0" d="M60.3,60.4c-0.7-0.2-1.4-0.4-1.9-0.7c-1.4-0.8-2-2.4-1.6-4c0.1-0.6,0.3-1.2,0.5-1.8c0.7-2.7,2.7-4.3,5.5-4.3
		c3.4,0,6.8,0,10.2,0c0.7,0,1-0.2,1.2-0.9c1.4-5.5,2.9-10.9,4.4-16.3c0.6-2.2,1.8-3.1,4.1-3.1c0.5,0,1,0,1.5,0
		c2.3,0.1,3.9,1.9,3.6,4.2c-0.4,3.1-0.8,6.1-1.2,9.2c-0.5,4.1-1.1,8.1-1.6,12.2c-0.4,2.7-1.2,3.9-3.8,5.2c0.4,1.7,0.8,3.5,1.1,5.2
		c0.7,3,1.3,5.9,2,8.9c0.3,1.3-0.3,2.3-1.4,2.5c-1,0.2-1.9-0.5-2.2-1.8c-1-4.6-2.1-9.3-3.1-13.9c-0.1-0.6-0.3-0.7-0.9-0.7
		c-3.9,0-7.8,0-11.6,0c-0.6,0-0.8,0.2-0.9,0.8c-1.1,4.5-2.2,9-3.3,13.5c-0.1,0.2-0.1,0.4-0.2,0.7c-0.3,1.1-1.2,1.7-2.2,1.4
		c-1-0.2-1.6-1.2-1.4-2.3c0.4-1.7,0.8-3.3,1.2-5c0.7-2.8,1.4-5.6,2.1-8.4C60.3,60.8,60.3,60.5,60.3,60.4z"/>
	<path class="st0" d="M61.8,31c-12,0-23.8,0-35.8,0c0-0.3,0.1-0.5,0.1-0.7c1.8-7.1,7.7-12.5,15-13.6c0.7-0.1,1-0.3,0.9-1
		c0-0.3,0-0.6,0-1.1c-0.6,0-1.2,0-1.7,0c-1.1,0-1.9-0.8-1.9-1.8c0-1,0.8-1.8,1.9-1.8c2.4,0,4.7,0,7.1,0c1.1,0,1.9,0.8,1.9,1.8
		c0,1-0.8,1.8-1.9,1.8c-0.5,0-1.1,0-1.6,0c0,0.7,0,1.3,0,1.9C54.1,17.8,59.5,22.6,61.8,31z M42.9,22.3c0-1.2-1-2.1-2.1-1.9
		c-3.5,0.8-6.4,2.6-8.5,5.4c-0.6,0.8-0.5,1.9,0.3,2.5c0.8,0.6,1.8,0.6,2.5-0.2c1.7-2.1,3.9-3.5,6.6-4.2
		C42.4,23.7,42.8,23.1,42.9,22.3z"/>
	<path class="st0" d="M42.9,34.7c8,0,16,0,24,0c1.9,0,2.4,0.5,2.4,2.4c0,1,0,2,0,3c0,1.1-0.7,1.8-1.8,1.8c-0.2,0-0.4,0-0.6,0
		c-16,0-32.1,0-48.1,0c-0.4,0-0.9,0-1.3-0.2c-0.7-0.3-1.1-0.9-1.1-1.7c0-1.1,0-2.2,0-3.3c0-1.5,0.7-2.1,2.1-2.1c6.3,0,12.7,0,19,0
		C39.3,34.7,41.1,34.7,42.9,34.7z"/>
	<path class="st0" d="M40.2,45.7c2.5,0,4.8,0,7.3,0c0,0.4,0,0.7,0,1c0,7,0,14,0,21c0,1.2,0.4,2,1.5,2.7c1.1,0.6,2,1.4,3.1,2
		c1.1,0.7,1.1,1.8,0.9,3.1c-0.2,0.9-1,1.3-2.2,1.3c-4.6,0-9.1,0-13.7,0c-1.2,0-2-0.4-2.2-1.3c-0.3-1.4-0.2-2.4,0.9-3.1
		c1.1-0.7,2.1-1.4,3.2-2.1c0.9-0.6,1.2-1.3,1.2-2.3c0-7,0-14,0-21C40.2,46.5,40.2,46.1,40.2,45.7z"/>
</g>
<g>
	<path d="M-216.7,200.9c-0.1,0.3-0.2,0.5-0.3,0.8c-0.9,3.5-3.9,6.1-7.6,6.2c-3.3,0.1-6.5,0.1-9.8,0c-1.4,0-2-0.7-2.1-2.2
		c0-2.2,0-4.4,0-6.6c0-5,0-10.1,0-15.1c0-5.6,3.5-9.1,9.1-9.1c1.2,0,2.5,0,3.7,0.2c3.3,0.6,5.4,2.6,6.5,5.7c0.1,0.4,0.3,0.7,0.4,1.1
		C-216.7,188.3-216.7,194.6-216.7,200.9z"/>
	<path d="M-329.2,205.5c0.6-1,1.5-1.3,2.6-1.3c3.3,0,6.5,0,9.8,0c0.4,0,0.8,0,1.3,0c0-0.6,0-1.1,0-1.6c0-25.7-0.1-51.4-0.1-77.1
		c0-7.3,4.8-13.4,11.8-15.1c6.7-1.7,13.7,0.9,17.3,6.3c0.8,1.2,0.6,2.4-0.5,3c-1,0.5-1.8,0.2-2.6-0.9c-1.9-2.6-4.4-4.3-7.5-4.9
		c-9.3-1.6-14.8,5.2-14.8,12c0.1,25.7,0.1,51.3,0.1,77c0,0.4,0,0.8,0,1.3c0.7,0,1.3,0,1.8,0c1.2,0.1,2,0.8,2,1.9
		c0,1.1-0.8,1.9-2.1,1.9c-5.7,0-11.4,0-17,0c-1,0-1.6-0.5-2.2-1.2C-329.2,206.4-329.2,205.9-329.2,205.5z"/>
	<path d="M-262.4,169.8c0,4.8,0,9.6,0,14.5c0,1.8-0.6,2.5-2.4,2.5c-4.5,0-9.1,0-13.6,0c-1.9,0-2.5-0.6-2.5-2.5
		c0-6.1-3.2-10.7-8.5-12.3c-1.5-0.4-3.1-0.5-4.6-0.6c-1.7-0.1-2.4-0.7-2.3-2.3c0-2.5-0.1-5,0.2-7.4c0.5-4.8,4.6-8.6,9.4-8.7
		c7.5-0.1,14.9,0,22.4,0c1.4,0,2,0.7,2,2.3C-262.4,160-262.4,164.9-262.4,169.8z"/>
	<path d="M-258.7,169.7c0-4.8,0-9.6,0-14.5c0-1.9,0.6-2.5,2.5-2.5c6.8,0,13.7,0,20.5,0c6.2,0,10.5,4.2,10.5,10.5c0,1.9,0,3.7,0,5.6
		c0,1.8-0.7,2.4-2.4,2.4c-7.5,0.1-12.6,5.2-12.7,12.7c0,2.2-0.5,2.7-2.7,2.7c-4.4,0-8.9,0-13.3,0c-1.9,0-2.5-0.6-2.5-2.5
		C-258.7,179.4-258.7,174.6-258.7,169.7z"/>
	<path d="M-260.7,208c-5.9,0-11.7,0-17.6,0c-2.2,0-2.7-0.5-2.7-2.7c0-4.1,0-8.3,0-12.4c0-1.8,0.6-2.4,2.4-2.4c12,0,23.9,0,35.9,0
		c1.8,0,2.4,0.6,2.4,2.5c0,4.2,0,8.5,0,12.7c0,1.7-0.6,2.4-2.4,2.4C-248.6,208-254.7,208-260.7,208z"/>
	<path d="M-284.7,194.6c0,3.6,0,7.2,0,10.9c0,1.9-0.6,2.5-2.5,2.5c-2.8,0-5.6,0-8.4,0c-5.3,0-8.9-3.6-8.9-8.9c0-5.1,0-10.2,0-15.2
		c0-5.2,3.6-8.8,8.8-8.8c1.2,0,2.4-0.1,3.5,0.1c4.4,0.6,7.3,4,7.4,8.6C-284.7,187.3-284.7,191-284.7,194.6z"/>
	<path d="M-285.6,141.8c-3.5,0-7.1,0-10.6,0c-1.9,0-2.5-0.6-2.5-2.5c0-2.9,0-5.7,1.3-8.4c2.7-5.3,8.7-8.3,14.4-7.1
		c6.2,1.4,10.4,6.5,10.5,12.6c0,1.1,0,2.1,0,3.2c0,1.6-0.7,2.2-2.3,2.2C-278.5,141.8-282,141.8-285.6,141.8z"/>
</g>
</svg>
