<?xml version="1.0" encoding="utf-8"?>
<!-- Generator: Adobe Illustrator 26.3.1, SVG Export Plug-In . SVG Version: 6.00 Build 0)  -->
<svg version="1.1" id="Layer_1" xmlns="http://www.w3.org/2000/svg" xmlns:xlink="http://www.w3.org/1999/xlink" x="0px" y="0px"
	 viewBox="0 0 87.6 87.6" style="enable-background:new 0 0 87.6 87.6;" xml:space="preserve">
<style type="text/css">
	.st0{fill:#FFFFFF;}
</style>
<g>
	<path class="st0" d="M362.8,80.4c-0.9,1.6-1.9,2.1-3.2,1.8c-1.4-0.4-2-1.4-2-3.3c0-0.6,0-1.2,0-1.9c-25.8,0-51.5,0-77.4,0
		c0,0.8,0,1.7,0,2.5c0,1.7-1.1,2.8-2.6,2.8s-2.5-1.2-2.5-2.8c0-4,0-8.1,0-12.1c0-0.2,0-0.4,0-0.6c0.3,0,0.6,0,0.8,0
		c28.8,0,57.6,0,86.4,0c0.1,0,0.3,0,0.4,0C362.8,71.3,362.8,75.9,362.8,80.4z"/>
	<path class="st0" d="M357.5,42.3c-3.2-2.5-6.6-4.3-10.3-5.3c0-1.7,0-3.3,0-4.9c0-3.8-2.5-6.3-6.3-6.4c-4.4,0-8.7,0-13.1,0
		c-3.7,0-6.2,2.6-6.3,6.2c0,1.3,0,2.6,0,4c-1.7,0-3.4,0-5.1,0c0-1.3,0-2.6,0-3.9c0-3.7-2.6-6.3-6.3-6.3c-4.4,0-8.7,0-13.1,0
		c-3.7,0-6.3,2.6-6.3,6.3c0,1.5,0,2.9,0,4.4c0,0.3-0.2,0.7-0.4,0.8c-3.6,1.1-6.9,2.8-9.8,5.2c0,0-0.1,0-0.2,0.1
		c0-0.3-0.1-0.5-0.1-0.7c0-9.4,0-18.8,0-28.2c0-1.9,0.6-2.6,2.5-3.1c7.2-2,14.5-3.4,22-4.2c8.5-0.9,17-1,25.5-0.3s16.8,2.2,25,4.5
		c1.9,0.5,2.4,1.3,2.4,3.2c0,9.3,0,18.5,0,27.8C357.5,41.5,357.5,41.8,357.5,42.3z"/>
	<path class="st0" d="M362.6,61.6c-29.1,0-58.1,0-87.3,0c0.2-1.1,0.4-2.1,0.6-3.1c2.5-10,11.7-17.3,22-17.4
		c14.1-0.1,28.1-0.1,42.2,0c11.4,0.1,21,8.7,22.6,20C362.6,61.2,362.6,61.4,362.6,61.6z"/>
	<path class="st0" d="M295.9,35.9c0-1.4,0-2.8,0-4.2c0-0.6,0.4-0.9,1-0.9c4.5,0,8.9,0,13.4,0c0.7,0,1,0.3,1,1c0,1.3,0,2.7,0,4.1
		C306.2,35.9,301.1,35.9,295.9,35.9z"/>
	<path class="st0" d="M326.7,36c0-1.5,0-2.9,0-4.2c0-0.6,0.4-0.9,1-0.9c4.5,0,8.9,0,13.4,0c0.7,0,1,0.4,1,1c0,1.4,0,2.7,0,4.1
		C337,36,331.9,36,326.7,36z"/>
</g>
<g>
	<path class="st0" d="M118.5,32c0.4-0.6,0.8-1.4,1.3-1.9c1.4-1.3,5.3-1.3,6.6,0.1c0.6,0.6,1,1.4,1.2,2.2c1.5,5.5,3,10.9,4.4,16.4
		c0.2,0.7,0.5,0.9,1.2,0.9c3.3,0,6.5,0,9.8,0s5.1,1.4,6,4.6c0.1,0.3,0.2,0.7,0.3,1c0.7,2.8-0.5,4.7-3.5,5.2c0.4,1.6,0.8,3.2,1.2,4.8
		c0.8,3,1.5,6,2.3,9c0.2,0.8,0.1,1.6-0.7,2.1c-0.6,0.4-1.3,0.5-1.9,0.1c-0.4-0.3-0.8-0.9-1-1.4c-1.2-4.6-2.3-9.2-3.4-13.8
		c-0.2-0.8-0.5-1-1.3-1c-3.8,0-7.5,0-11.3,0c-0.6,0-0.8,0.1-1,0.7c-1,4.6-2,9.2-3.1,13.8c-0.1,0.6-0.5,1.3-1,1.7
		c-0.5,0.5-1.3,0.4-1.9-0.1s-0.9-1.1-0.7-1.9c0.7-3.1,1.4-6.2,2-9.3c0.4-1.7,0.8-3.4,1.2-5.2c-2.5-1-3.6-2.8-3.9-5.4
		c-0.8-6.8-1.8-13.5-2.7-20.3c0-0.2-0.1-0.4-0.2-0.7C118.5,33.1,118.5,32.6,118.5,32z"/>
	<path class="st0" d="M178.8,60.4c-0.7-0.2-1.4-0.4-1.9-0.7c-1.4-0.8-2-2.4-1.6-4c0.1-0.6,0.3-1.2,0.5-1.8c0.7-2.7,2.7-4.3,5.5-4.3
		c3.4,0,6.8,0,10.2,0c0.7,0,1-0.2,1.2-0.9c1.4-5.5,2.9-10.9,4.4-16.3c0.6-2.2,1.8-3.1,4.1-3.1c0.5,0,1,0,1.5,0
		c2.3,0.1,3.9,1.9,3.6,4.2c-0.4,3.1-0.8,6.1-1.2,9.2c-0.5,4.1-1.1,8.1-1.6,12.2c-0.4,2.7-1.2,3.9-3.8,5.2c0.4,1.7,0.8,3.5,1.1,5.2
		c0.7,3,1.3,5.9,2,8.9c0.3,1.3-0.3,2.3-1.4,2.5c-1,0.2-1.9-0.5-2.2-1.8c-1-4.6-2.1-9.3-3.1-13.9c-0.1-0.6-0.3-0.7-0.9-0.7
		c-3.9,0-7.8,0-11.6,0c-0.6,0-0.8,0.2-0.9,0.8c-1.1,4.5-2.2,9-3.3,13.5c-0.1,0.2-0.1,0.4-0.2,0.7c-0.3,1.1-1.2,1.7-2.2,1.4
		c-1-0.2-1.6-1.2-1.4-2.3c0.4-1.7,0.8-3.3,1.2-5c0.7-2.8,1.4-5.6,2.1-8.4C178.7,60.8,178.8,60.5,178.8,60.4z"/>
	<path class="st0" d="M180.3,31c-12,0-23.8,0-35.8,0c0-0.3,0.1-0.5,0.1-0.7c1.8-7.1,7.7-12.5,15-13.6c0.7-0.1,1-0.3,0.9-1
		c0-0.3,0-0.6,0-1.1c-0.6,0-1.2,0-1.7,0c-1.1,0-1.9-0.8-1.9-1.8s0.8-1.8,1.9-1.8c2.4,0,4.7,0,7.1,0c1.1,0,1.9,0.8,1.9,1.8
		s-0.8,1.8-1.9,1.8c-0.5,0-1.1,0-1.6,0c0,0.7,0,1.3,0,1.9C172.6,17.8,178,22.6,180.3,31z M161.3,22.3c0-1.2-1-2.1-2.1-1.9
		c-3.5,0.8-6.4,2.6-8.5,5.4c-0.6,0.8-0.5,1.9,0.3,2.5s1.8,0.6,2.5-0.2c1.7-2.1,3.9-3.5,6.6-4.2C160.9,23.7,161.3,23.1,161.3,22.3z"
		/>
	<path class="st0" d="M161.4,34.7c8,0,16,0,24,0c1.9,0,2.4,0.5,2.4,2.4c0,1,0,2,0,3c0,1.1-0.7,1.8-1.8,1.8c-0.2,0-0.4,0-0.6,0
		c-16,0-32.1,0-48.1,0c-0.4,0-0.9,0-1.3-0.2c-0.7-0.3-1.1-0.9-1.1-1.7c0-1.1,0-2.2,0-3.3c0-1.5,0.7-2.1,2.1-2.1c6.3,0,12.7,0,19,0
		C157.8,34.7,159.6,34.7,161.4,34.7z"/>
	<path class="st0" d="M158.7,45.7c2.5,0,4.8,0,7.3,0c0,0.4,0,0.7,0,1c0,7,0,14,0,21c0,1.2,0.4,2,1.5,2.7c1.1,0.6,2,1.4,3.1,2
		c1.1,0.7,1.1,1.8,0.9,3.1c-0.2,0.9-1,1.3-2.2,1.3c-4.6,0-9.1,0-13.7,0c-1.2,0-2-0.4-2.2-1.3c-0.3-1.4-0.2-2.4,0.9-3.1
		c1.1-0.7,2.1-1.4,3.2-2.1c0.9-0.6,1.2-1.3,1.2-2.3c0-7,0-14,0-21C158.7,46.5,158.7,46.1,158.7,45.7z"/>
</g>
<g>
	<path class="st0" d="M87.6,76c-0.1,0.2-0.1,0.4-0.2,0.6c-0.7,2.8-3.1,4.7-5.9,4.9c-2.5,0.1-5.1,0.1-7.6,0c-1.1,0-1.6-0.6-1.6-1.7
		c0-1.7,0-3.4,0-5.1c0-3.9,0-7.9,0-11.8c0-4.4,2.7-7.1,7.1-7.1c1,0,2,0,2.9,0.1c2.5,0.5,4.2,2,5,4.4c0.1,0.3,0.2,0.6,0.3,0.9
		C87.6,66.2,87.6,71.1,87.6,76z"/>
	<path class="st0" d="M0,79.6c0.5-0.7,1.1-1,2-1c2.5,0,5.1,0,7.6,0c0.3,0,0.6,0,1,0c0-0.5,0-0.9,0-1.3c0-20,0-40-0.1-60
		c0-5.7,3.7-10.4,9.2-11.8c5.2-1.3,10.7,0.7,13.5,4.9c0.6,1,0.5,1.9-0.4,2.3c-0.7,0.4-1.4,0.2-2-0.7c-1.5-2-3.4-3.4-5.9-3.8
		c-7.3-1.2-11.5,4.1-11.5,9.4c0.1,20,0.1,40,0.1,60c0,0.3,0,0.6,0,1c0.5,0,1,0,1.4,0c1,0.1,1.6,0.6,1.6,1.4c0,0.9-0.6,1.5-1.6,1.5
		c-4.4,0-8.8,0-13.3,0c-0.8,0-1.3-0.4-1.7-0.9C0,80.3,0,80,0,79.6z"/>
	<path class="st0" d="M52,51.8c0,3.8,0,7.5,0,11.3c0,1.4-0.5,1.9-1.9,1.9c-3.5,0-7.1,0-10.6,0c-1.5,0-1.9-0.4-1.9-1.9
		c0-4.7-2.5-8.3-6.6-9.6c-1.2-0.3-2.4-0.4-3.6-0.5c-1.3-0.1-1.8-0.5-1.8-1.8c0-1.9-0.1-3.9,0.1-5.8c0.4-3.7,3.6-6.7,7.3-6.7
		c5.8-0.1,11.6,0,17.5,0c1.1,0,1.6,0.6,1.6,1.8C52,44.2,52,48,52,51.8z"/>
	<path class="st0" d="M55,51.8c0-3.8,0-7.5,0-11.3c0-1.5,0.5-1.9,1.9-1.9c5.3,0,10.7,0,16,0c4.8,0,8.1,3.3,8.2,8.1
		c0,1.5,0,2.9,0,4.4c0,1.4-0.5,1.9-1.8,1.9c-5.8,0.1-9.8,4.1-9.9,9.9c0,1.7-0.4,2.1-2.1,2.1c-3.4,0-6.9,0-10.3,0c-1.6,0-2-0.5-2-2
		C55,59.3,55,55.5,55,51.8z"/>
	<path class="st0" d="M53.4,81.6c-4.6,0-9.1,0-13.7,0c-1.7,0-2.1-0.4-2.1-2.1c0-3.2,0-6.4,0-9.6c0-1.4,0.5-1.9,1.9-1.9
		c9.3,0,18.6,0,28,0c1.4,0,1.9,0.5,1.9,1.9c0,3.3,0,6.6,0,9.9c0,1.4-0.5,1.8-1.9,1.8C62.8,81.6,58.1,81.6,53.4,81.6z"/>
	<path class="st0" d="M34.7,71.2c0,2.8,0,5.6,0,8.5c0,1.5-0.5,1.9-1.9,2c-2.2,0-4.3,0-6.5,0c-4.2,0-6.9-2.8-6.9-6.9
		c0-4,0-7.9,0-11.9c0-4.1,2.8-6.9,6.9-6.9c0.9,0,1.8-0.1,2.7,0.1c3.4,0.5,5.7,3.1,5.7,6.7C34.7,65.5,34.7,68.3,34.7,71.2z"/>
	<path class="st0" d="M34,30c-2.8,0-5.5,0-8.3,0c-1.5,0-1.9-0.5-1.9-1.9c0-2.3,0-4.5,1-6.6C26.9,17.4,31.6,15,36,16
		c4.8,1.1,8.1,5,8.2,9.8c0,0.8,0,1.6,0,2.5c0,1.2-0.5,1.7-1.8,1.7C39.6,30,36.8,30,34,30z"/>
</g>
</svg>
